<?xml version="1.0" standalone="no"?>
<!DOCTYPE svg PUBLIC "-//W3C//DTD SVG 20010904//EN"
 "http://www.w3.org/TR/2001/REC-SVG-20010904/DTD/svg10.dtd">
<svg version="1.0" xmlns="http://www.w3.org/2000/svg"
 width="1004.000000pt" height="1004.000000pt" viewBox="0 0 1004.000000 1004.000000"
 preserveAspectRatio="xMidYMid meet">
<metadata>
Created by potrace 1.14, written by Peter Selinger 2001-2017
</metadata>
<g transform="translate(0.000000,1004.000000) scale(0.100000,-0.100000)"
fill="#000000" stroke="none">
<path d="M4940 8844 c-36 -2 -164 -8 -285 -14 -689 -34 -1304 -124 -1603 -236
-413 -155 -804 -442 -1014 -745 -183 -262 -362 -724 -442 -1134 -76 -393 -113
-1098 -103 -1950 8 -620 26 -856 93 -1200 68 -355 164 -647 301 -919 151 -300
392 -559 723 -779 124 -82 414 -226 526 -261 266 -83 500 -139 649 -155 105
-12 377 -23 984 -42 374 -12 1092 -1 1386 21 573 44 1069 166 1483 365 259
125 419 232 576 384 150 147 336 444 419 671 57 158 115 341 127 405 7 33 18
83 25 110 16 58 50 332 65 515 31 391 49 1460 31 1830 -41 836 -162 1508 -336
1865 -165 339 -485 665 -868 885 -60 34 -142 77 -182 95 -315 144 -916 239
-1740 275 -253 11 -719 19 -815 14z m-30 -1507 l0 -324 -247 -6 c-214 -5 -263
-10 -356 -31 -117 -27 -257 -84 -364 -149 -267 -160 -488 -434 -577 -715 -41
-132 -57 -242 -63 -454 l-6 -198 -328 0 c-180 0 -330 3 -332 8 -7 14 11 428
23 502 40 256 157 574 283 770 335 522 875 857 1467 909 52 4 186 9 298 10
l202 1 0 -323z m1025 312 c465 -40 874 -230 1205 -559 220 -219 384 -484 479
-776 67 -205 87 -340 98 -656 l6 -198 -330 0 -331 0 -4 228 c-4 206 -7 236
-31 327 -66 250 -181 450 -356 618 -186 179 -407 296 -661 352 -56 12 -151 18
-369 22 l-293 6 5 321 c3 176 6 322 6 324 2 7 474 0 576 -9z m-663 -1803 c262
-50 476 -253 545 -516 23 -88 23 -254 0 -340 -53 -202 -201 -379 -387 -464
-100 -46 -175 -61 -305 -60 -104 0 -130 4 -199 27 -164 57 -306 169 -383 303
-155 267 -132 583 59 814 107 128 241 206 423 244 46 9 178 5 247 -8z m2448
-1039 c0 -337 -31 -586 -95 -783 -110 -337 -300 -631 -555 -861 -188 -170
-446 -318 -696 -402 -234 -78 -452 -105 -814 -99 l-205 3 -3 321 -3 321 173 6
c95 4 221 7 280 7 182 0 372 46 538 130 132 66 228 136 341 249 177 177 283
365 350 621 20 75 24 118 28 360 l6 275 320 5 c176 3 323 4 328 2 4 -2 7 -72
7 -155z m-4420 -39 c0 -216 11 -344 39 -463 97 -403 406 -755 796 -904 177
-68 242 -77 610 -85 l160 -3 3 -327 2 -326 -187 0 c-339 0 -513 25 -752 106
-530 180 -959 583 -1174 1104 -71 173 -127 389 -146 560 -8 72 -17 471 -12
523 1 4 150 7 331 7 l330 0 0 -192z"/>
</g>
</svg>
